# xmcd
#
# Track frame offsets:
#	150
#	14470
#	27860
#	42164
#	57127
#	75653
#	80842
#	96467
#	121332
#	128619
#	145478
#	163222
#	176730
#	187321
#	203960
#	218609
#	232890
#
# Disc length: 3248 seconds
# Revision: 0
# Processed by: cddbd v1.5.2PL0 Copyright (c) Steve Scherf et al.
# Submitted via: dBpowerAMP V12.0
#
DISCID=f10cae11
DTITLE=Steppenwolf - At Your Birthday Party
DYEAR=1969
DGENRE=Bluesrock
TTITLE0=Don't Cry
TTITLE1=Chicken Wolf
TTITLE2=Lovely Meter
TTITLE3=Round and Down
TTITLE4=It's Never Too Late
TTITLE5=Sleeping Dreaming
TTITLE6=Jupiter Child
TTITLE7=She'lll Be Better
TTITLE8=Cat Killer
TTITLE9=Rock Me
TTITLE10=God Fearing Man
TTITLE11=Mango juice
TTITLE12=Happy Birthday
TTITLE13=Rock Me [Mono Single Version]
TTITLE14=Jupiter Child [Mono Single Version]
TTITLE15=It's Never Too Late [Mono Single Version]
TTITLE16=Happy BirthdayIt's Never Too Late [Mono Single Version]
EXTD=
EXTT0=
EXTT1=
EXTT2=
EXTT3=
EXTT4=
EXTT5=
EXTT6=
EXTT7=
EXTT8=
EXTT9=
EXTT10=
EXTT11=
EXTT12=
EXTT13=
EXTT14=
EXTT15=
EXTT16=
PLAYORDER=
